<svg xmlns="http://www.w3.org/2000/svg" viewBox="0 0 512 512">
  <rect width="512" height="512" rx="108" fill="#171816"/>
  <circle cx="256" cy="256" r="178" fill="none" stroke="#d99c37" stroke-width="18"/>
  <path d="M216 92h80c18 30 22 68 8 106-10 27-25 44-42 58v70h54v42H196v-42h54v-70c-17-14-32-31-42-58-14-38-10-76 8-106z" fill="#d99c37"/>
  <path d="M178 150c-42 8-64 31-64 66 0 40 32 76 87 92" fill="none" stroke="#f3d27a" stroke-width="22" stroke-linecap="round"/>
  <path d="M334 150c42 8 64 31 64 66 0 40-32 76-87 92" fill="none" stroke="#f3d27a" stroke-width="22" stroke-linecap="round"/>
</svg>
